<svg width="400" height="400" viewBox="0 0 400 400" fill="none" xmlns="http://www.w3.org/2000/svg">
<rect width="400" height="400" rx="40" fill="#CD373A" fill-opacity="0.3"/>
<path d="M251.097 297.548V232.516H292.903C310.829 232.516 325.419 217.93 325.419 200C325.419 182.07 310.829 167.484 292.903 167.484C290.139 167.484 287.427 167.828 284.788 168.511C277.732 151.277 260.694 139.613 241.806 139.613C239.749 139.613 237.719 139.78 235.717 140.04C225.061 117.098 202.341 102.452 176.774 102.452C147.728 102.452 122.63 121.385 114.487 148.945C92.3113 149.944 74.5807 168.297 74.5807 190.71C74.5807 213.759 93.3332 232.516 116.387 232.516H148.903V297.548H251.097ZM241.806 288.258H158.194V176.774H241.806V288.258ZM116.387 223.226C98.4615 223.226 83.871 208.64 83.871 190.71C83.871 172.779 98.4615 158.194 116.387 158.194C116.638 158.194 116.88 158.212 117.126 158.231L121.683 158.444L122.565 154.696C128.516 129.403 150.803 111.742 176.774 111.742C198.035 111.742 217.006 123.559 226.459 142.228C224.661 142.86 222.887 143.585 221.159 144.444L225.298 152.763C230.449 150.204 236.005 148.903 241.806 148.903C258.218 148.903 272.878 159.912 277.467 175.678L278.931 180.718L283.752 178.651C286.66 177.406 289.735 176.774 292.903 176.774C305.71 176.774 316.129 187.193 316.129 200C316.129 212.807 305.71 223.226 292.903 223.226H251.097V167.484H148.903V223.226H116.387Z" fill="#CD373A"/>
<path d="M200 334.71C147.895 334.71 101.439 305.459 78.7659 258.371L77.4978 255.742H65.2903V302.194H74.5806V270.458C100.059 316.045 147.328 344 200 344C236.483 344 271.289 330.329 297.999 305.51L291.677 298.705C266.686 321.922 234.133 334.71 200 334.71Z" fill="#CD373A"/>
<path d="M330.064 232.516C322.381 232.516 316.129 238.768 316.129 246.452C316.129 254.135 322.381 260.387 330.064 260.387C337.747 260.387 344 254.135 344 246.452C344 238.768 337.747 232.516 330.064 232.516ZM330.064 251.097C327.5 251.097 325.419 249.011 325.419 246.452C325.419 243.892 327.5 241.806 330.064 241.806C332.629 241.806 334.71 243.892 334.71 246.452C334.71 249.011 332.629 251.097 330.064 251.097Z" fill="#CD373A"/>
<path d="M311.484 269.677C303.801 269.677 297.548 275.93 297.548 283.613C297.548 291.296 303.801 297.548 311.484 297.548C319.167 297.548 325.419 291.296 325.419 283.613C325.419 275.93 319.167 269.677 311.484 269.677ZM311.484 288.258C308.92 288.258 306.839 286.172 306.839 283.613C306.839 281.053 308.92 278.968 311.484 278.968C314.048 278.968 316.129 281.053 316.129 283.613C316.129 286.172 314.048 288.258 311.484 288.258Z" fill="#CD373A"/>
<path d="M200 65.2903C252.105 65.2903 298.561 94.5409 321.234 141.629L322.502 144.258H334.71V97.8065H325.419V129.542C299.941 83.9546 252.671 56 200 56C163.294 56 128.33 69.8147 101.564 94.9032L107.914 101.681C132.956 78.2178 165.658 65.2903 200 65.2903Z" fill="#CD373A"/>
<path d="M83.871 153.548C83.871 145.865 77.6186 139.613 69.9355 139.613C62.2524 139.613 56 145.865 56 153.548C56 161.231 62.2524 167.484 69.9355 167.484C77.6186 167.484 83.871 161.236 83.871 153.548ZM65.2903 153.548C65.2903 150.989 67.3714 148.903 69.9355 148.903C72.4996 148.903 74.5806 150.989 74.5806 153.548C74.5806 156.108 72.4996 158.194 69.9355 158.194C67.3714 158.194 65.2903 156.113 65.2903 153.548Z" fill="#CD373A"/>
<path d="M88.5162 130.323C96.1993 130.323 102.452 124.07 102.452 116.387C102.452 108.704 96.1993 102.452 88.5162 102.452C80.8331 102.452 74.5807 108.704 74.5807 116.387C74.5807 124.07 80.8331 130.323 88.5162 130.323ZM88.5162 111.742C91.0803 111.742 93.1613 113.828 93.1613 116.387C93.1613 118.947 91.0803 121.032 88.5162 121.032C85.952 121.032 83.871 118.947 83.871 116.387C83.871 113.828 85.952 111.742 88.5162 111.742Z" fill="#CD373A"/>
<path d="M232.516 186.064H167.484V223.226H232.516V186.064ZM223.226 213.935H176.774V195.355H223.226V213.935Z" fill="#CD373A"/>
<path d="M167.484 232.516H176.774V241.806H167.484V232.516Z" fill="#CD373A"/>
<path d="M186.064 232.516H232.516V241.806H186.064V232.516Z" fill="#CD373A"/>
<path d="M167.484 251.097H232.516V260.387H167.484V251.097Z" fill="#CD373A"/>
<path d="M167.484 269.677H232.516V278.968H167.484V269.677Z" fill="#CD373A"/>
<path d="M176.774 130.323V121.032C154.933 121.032 136.301 135.892 131.47 157.162L140.533 159.22C144.393 142.21 159.299 130.323 176.774 130.323Z" fill="#CD373A"/>
</svg>
