<svg width="400" height="400" viewBox="0 0 400 400" fill="none" xmlns="http://www.w3.org/2000/svg">
<rect width="400" height="400" rx="40" fill="#0B68B8" fill-opacity="0.3"/>
<path d="M278.968 158.194C253.354 158.194 232.516 179.032 232.516 204.645C232.516 230.259 253.354 251.097 278.968 251.097C304.581 251.097 325.419 230.259 325.419 204.645C325.419 179.032 304.581 158.194 278.968 158.194ZM278.968 241.807C258.478 241.807 241.806 225.135 241.806 204.645C241.806 184.155 258.478 167.484 278.968 167.484C299.458 167.484 316.129 184.155 316.129 204.645C316.129 225.135 299.458 241.807 278.968 241.807Z" fill="#3A9DD0"/>
<path d="M209.29 111.742H181.419V158.194H172.129V93.1613H144.258V158.194H134.968V130.323H107.097V158.194H97.8064V167.484H218.581V158.194H209.29V111.742ZM125.677 158.194H116.387V139.613H125.677V158.194ZM162.839 158.194H153.548V102.452H162.839V158.194ZM200 158.194H190.71V121.032H200V158.194Z" fill="#3A9DD0"/>
<path d="M278.968 139.613C277.393 139.613 275.855 139.738 274.309 139.85C274.309 139.771 274.323 139.692 274.323 139.613C274.323 111.44 251.399 88.5161 223.226 88.5161C220.508 88.5161 217.726 88.753 214.925 89.2268C203.41 68.6395 181.991 56 158.194 56C129.147 56 104.045 74.9337 95.9066 102.493C73.7306 103.492 56 121.845 56 144.258C56 167.307 74.7572 186.065 97.8065 186.065H134.968V212.012L102.452 244.529V274.982C94.4619 277.059 88.5161 284.268 88.5161 292.903C88.5161 303.15 96.8495 311.484 107.097 311.484C117.344 311.484 125.677 303.15 125.677 292.903C125.677 284.268 119.732 277.059 111.742 274.982V248.375L144.258 215.859V186.065H153.548V307.498C145.559 309.575 139.613 316.784 139.613 325.419C139.613 335.667 147.946 344 158.194 344C168.441 344 176.774 335.667 176.774 325.419C176.774 316.784 170.828 309.575 162.839 307.498V186.065H172.129V211.213L195.355 234.439V251.756C187.365 253.833 181.419 261.042 181.419 269.677C181.419 279.925 189.753 288.258 200 288.258C210.247 288.258 218.581 279.925 218.581 269.677C218.581 261.042 212.635 253.833 204.645 251.756V230.593L181.419 207.367V186.065H216.676C214.911 191.959 213.935 198.188 213.935 204.645C213.935 232.316 231.336 255.937 255.742 265.316V320.774C255.742 333.581 266.161 344 278.968 344C291.774 344 302.194 333.581 302.194 320.774V265.316C326.599 255.937 344 232.316 344 204.645C344 168.785 314.828 139.613 278.968 139.613ZM116.387 292.903C116.387 298.027 112.22 302.194 107.097 302.194C101.973 302.194 97.8065 298.027 97.8065 292.903C97.8065 287.78 101.973 283.613 107.097 283.613C112.22 283.613 116.387 287.78 116.387 292.903ZM209.29 269.677C209.29 274.801 205.124 278.968 200 278.968C194.876 278.968 190.71 274.801 190.71 269.677C190.71 264.554 194.876 260.387 200 260.387C205.124 260.387 209.29 264.554 209.29 269.677ZM167.484 325.419C167.484 330.543 163.317 334.71 158.194 334.71C153.07 334.71 148.903 330.543 148.903 325.419C148.903 320.296 153.07 316.129 158.194 316.129C163.317 316.129 167.484 320.296 167.484 325.419ZM97.8065 176.774C79.8761 176.774 65.2903 162.188 65.2903 144.258C65.2903 126.328 79.8761 111.742 97.8065 111.742C98.0573 111.742 98.2988 111.761 98.545 111.779L103.107 111.993L103.989 108.244C109.935 82.9512 132.227 65.2903 158.194 65.2903C179.626 65.2903 198.815 77.2563 208.264 96.5197L209.899 99.8503L213.508 98.991C216.811 98.2059 220.081 97.8065 223.226 97.8065C246.275 97.8065 265.032 116.564 265.032 139.613C265.032 140.142 264.963 140.653 264.944 141.178C245.179 145.545 228.814 158.927 220.299 176.774H97.8065ZM292.903 320.774C292.903 328.457 286.651 334.71 278.968 334.71C271.285 334.71 265.032 328.457 265.032 320.774V268.135C269.529 269.12 274.183 269.677 278.968 269.677C283.752 269.677 288.407 269.12 292.903 268.135V320.774ZM278.968 260.387C248.231 260.387 223.226 235.382 223.226 204.645C223.226 173.908 248.231 148.903 278.968 148.903C309.705 148.903 334.71 173.908 334.71 204.645C334.71 235.382 309.705 260.387 278.968 260.387Z" fill="#3A9DD0"/>
</svg>
