<svg width="400" height="400" viewBox="0 0 400 400" fill="none" xmlns="http://www.w3.org/2000/svg">
<path d="M0 40C0 17.9086 17.9086 0 40 0H360C382.091 0 400 17.9086 400 40V360C400 382.091 382.091 400 360 400H40C17.9086 400 0 382.091 0 360V40Z" fill="#3A9DD0" fill-opacity="0.3"/>
<path d="M97.8065 186.065H148.903V176.774H97.8065C79.8761 176.774 65.2903 162.188 65.2903 144.258C65.2903 126.328 79.8761 111.742 97.8065 111.742C98.0573 111.742 98.2988 111.761 98.545 111.779L103.107 111.993L103.989 108.244C109.935 82.9512 132.227 65.2903 158.194 65.2903C177.838 65.2903 195.819 75.5329 205.899 92.2137C203.665 94.5966 201.551 97.1143 199.726 99.9107L207.511 104.988C216.133 91.7677 230.691 83.871 246.452 83.871C267.935 83.871 286.474 98.4614 291.542 119.351L292.75 124.34L297.595 122.635C300.628 121.571 303.736 121.032 306.839 121.032C322.21 121.032 334.71 133.532 334.71 148.903C334.71 164.274 322.21 176.774 306.839 176.774H251.097V186.065H306.839C327.329 186.065 344 169.393 344 148.903C344 128.413 327.329 111.742 306.839 111.742C304.293 111.742 301.752 112.011 299.239 112.546C291.686 89.9701 270.62 74.5806 246.452 74.5806C234.109 74.5806 222.422 78.673 212.89 85.887C200.971 67.3295 180.509 56 158.194 56C129.147 56 104.045 74.9337 95.9066 102.493C73.7306 103.492 56 121.845 56 144.258C56 167.307 74.7572 186.065 97.8065 186.065Z" fill="#0B68B8"/>
<path d="M325.419 274.662L325.415 204.645H316.124L316.129 283.613H322.549C324.133 283.613 325.419 284.9 325.419 286.484C325.419 286.93 325.317 287.371 325.117 287.766L314.053 309.895C313.073 311.855 309.895 311.855 308.92 309.895L297.855 287.766C297.651 287.375 297.548 286.93 297.548 286.484C297.548 284.9 298.835 283.613 300.419 283.613H306.839V227.871H297.548V274.662C292.225 275.958 288.258 280.765 288.258 286.484C288.258 288.36 288.704 290.246 289.54 291.923L300.605 314.053C302.677 318.196 306.848 320.774 311.484 320.774C316.12 320.774 320.291 318.196 322.363 314.053L333.428 291.923C334.264 290.246 334.71 288.36 334.71 286.484C334.71 280.77 330.743 275.962 325.419 274.662Z" fill="#0B68B8"/>
<path d="M102.452 274.662V232.516H93.1613V283.613H99.5809C101.165 283.613 102.452 284.9 102.452 286.484C102.452 286.93 102.349 287.371 102.15 287.766L91.0849 309.895C90.1047 311.855 86.9274 311.855 85.952 309.895L74.8872 287.766C74.6828 287.375 74.5806 286.93 74.5806 286.484C74.5806 284.9 75.8673 283.613 77.4513 283.613H83.8709L83.8663 204.645H74.576L74.5806 274.662C69.2573 275.958 65.2903 280.765 65.2903 286.484C65.2903 288.36 65.7362 290.246 66.5723 291.923L77.6371 314.053C79.7089 318.196 83.8802 320.774 88.5161 320.774C93.152 320.774 97.3233 318.196 99.3951 314.053L110.46 291.923C111.296 290.246 111.742 288.36 111.742 286.484C111.742 280.77 107.775 275.962 102.452 274.662Z" fill="#0B68B8"/>
<path d="M93.1613 213.936H102.452V223.226H93.1613V213.936Z" fill="#0B68B8"/>
<path d="M297.548 213.936H306.839V223.226H297.548V213.936Z" fill="#0B68B8"/>
<path d="M255.742 213.936H241.806V153.548C241.806 150.989 243.892 148.903 246.452 148.903H251.951C253.875 154.296 258.984 158.194 265.032 158.194C272.715 158.194 278.968 151.941 278.968 144.258C278.968 136.575 272.715 130.323 265.032 130.323C258.984 130.323 253.875 134.22 251.951 139.613H246.452C238.768 139.613 232.516 145.865 232.516 153.548V213.936H204.645V181.419H195.355V213.936H167.484V153.548C167.484 145.865 161.231 139.613 153.548 139.613H148.048C146.125 134.22 141.016 130.323 134.968 130.323C127.285 130.323 121.032 136.575 121.032 144.258C121.032 151.941 127.285 158.194 134.968 158.194C141.016 158.194 146.125 154.296 148.048 148.903H153.548C156.108 148.903 158.194 150.989 158.194 153.548V213.936H144.258C136.575 213.936 130.323 220.188 130.323 227.871V330.065C130.323 337.748 136.575 344 144.258 344H255.742C263.425 344 269.677 337.748 269.677 330.065V227.871C269.677 220.188 263.425 213.936 255.742 213.936ZM265.032 139.613C267.592 139.613 269.677 141.699 269.677 144.258C269.677 146.818 267.592 148.903 265.032 148.903C262.473 148.903 260.387 146.818 260.387 144.258C260.387 141.699 262.473 139.613 265.032 139.613ZM134.968 148.903C132.408 148.903 130.323 146.818 130.323 144.258C130.323 141.699 132.408 139.613 134.968 139.613C137.527 139.613 139.613 141.699 139.613 144.258C139.613 146.818 137.527 148.903 134.968 148.903ZM144.258 223.226H255.742C258.301 223.226 260.387 225.307 260.387 227.871V241.806H139.613V227.871C139.613 225.307 141.699 223.226 144.258 223.226ZM139.613 288.258V269.677H260.387V288.258H139.613ZM260.387 297.548V306.839H139.613V297.548H260.387ZM139.613 260.387V251.097H260.387V260.387H139.613ZM255.742 334.71H144.258C141.699 334.71 139.613 332.629 139.613 330.065V316.129H260.387V330.065C260.387 332.629 258.301 334.71 255.742 334.71Z" fill="#0B68B8"/>
<path d="M204.645 172.129V143.403C210.038 141.48 213.935 136.371 213.935 130.323C213.935 122.639 207.683 116.387 200 116.387C192.317 116.387 186.064 122.639 186.064 130.323C186.064 136.371 189.962 141.48 195.355 143.403V172.129H204.645ZM200 125.677C202.559 125.677 204.645 127.763 204.645 130.323C204.645 132.882 202.559 134.968 200 134.968C197.44 134.968 195.355 132.882 195.355 130.323C195.355 127.763 197.44 125.677 200 125.677Z" fill="#0B68B8"/>
</svg>
