<svg width="512" height="512" viewBox="0 0 512 512" fill="none" xmlns="http://www.w3.org/2000/svg">
<path d="M362.667 128C356.267 128 352 130.133 347.733 134.4L134.4 347.733C125.867 356.267 125.867 369.067 134.4 377.6C142.933 386.133 155.733 386.133 164.267 377.6L377.6 164.267C386.133 155.733 386.133 142.933 377.6 134.4C373.333 130.133 369.067 128 362.667 128Z" fill="#444850"/>
<path d="M362.667 128H170.667C157.867 128 149.333 136.533 149.333 149.333C149.333 162.133 157.867 170.666 170.667 170.666H341.333V341.333C341.333 354.133 349.867 362.667 362.667 362.667C375.467 362.667 384 354.133 384 341.333V149.333C384 136.533 375.467 128 362.667 128Z" fill="#444850"/>
</svg>
