<svg width="400" height="400" viewBox="0 0 400 400" fill="none" xmlns="http://www.w3.org/2000/svg">
<path d="M186.065 74.5806H195.355V83.871H186.065V74.5806Z" fill="#3A9DD0"/>
<path d="M223.226 74.5806H232.516V83.871H223.226V74.5806Z" fill="#3A9DD0"/>
<path d="M204.645 74.5806H213.935V83.871H204.645V74.5806Z" fill="#3A9DD0"/>
<path d="M102.452 139.613H111.742V148.903H102.452V139.613Z" fill="#3A9DD0"/>
<path d="M139.613 139.613H148.903V148.903H139.613V139.613Z" fill="#3A9DD0"/>
<path d="M121.032 139.613H130.323V148.903H121.032V139.613Z" fill="#3A9DD0"/>
<path d="M186.065 204.645H195.355V213.935H186.065V204.645Z" fill="#3A9DD0"/>
<path d="M204.645 204.645H213.935V213.935H204.645V204.645Z" fill="#3A9DD0"/>
<path d="M223.226 204.645H232.516V213.935H223.226V204.645Z" fill="#3A9DD0"/>
<path d="M283.613 204.645C265.687 204.645 251.097 219.231 251.097 237.161C251.097 255.092 265.687 269.677 283.613 269.677C301.539 269.677 316.129 255.092 316.129 237.161C316.129 219.231 301.539 204.645 283.613 204.645ZM283.613 260.387C270.806 260.387 260.387 249.968 260.387 237.161C260.387 224.355 270.806 213.935 283.613 213.935C296.42 213.935 306.839 224.355 306.839 237.161C306.839 249.968 296.42 260.387 283.613 260.387Z" fill="#3A9DD0"/>
<path d="M283.613 223.226C275.93 223.226 269.677 229.478 269.677 237.161C269.677 244.844 275.93 251.097 283.613 251.097C291.296 251.097 297.548 244.844 297.548 237.161C297.548 229.478 291.296 223.226 283.613 223.226ZM283.613 241.806C281.049 241.806 278.968 239.721 278.968 237.161C278.968 234.602 281.049 232.516 283.613 232.516C286.177 232.516 288.258 234.602 288.258 237.161C288.258 239.721 286.177 241.806 283.613 241.806Z" fill="#3A9DD0"/>
<path d="M334.171 221.279C332.768 220.82 331.676 219.812 331.165 218.502C330.929 217.893 330.682 217.294 330.422 216.695C329.874 215.431 329.939 213.949 330.599 212.639C333.39 207.121 332.327 200.474 327.956 196.093L324.681 192.823C320.31 188.447 313.662 187.384 308.139 190.175C306.834 190.844 305.352 190.905 304.079 190.352C303.48 190.092 302.872 189.841 302.263 189.604C300.967 189.102 299.959 188.002 299.495 186.599C297.813 181.475 293.451 177.819 288.258 176.969V95.0844L308.2 115.026L314.768 108.458L283.613 77.3027L252.458 108.458L259.026 115.026L278.968 95.0844V176.969C273.774 177.824 269.413 181.48 267.731 186.603C267.267 188.006 266.263 189.102 264.972 189.604C264.354 189.841 263.746 190.092 263.142 190.357C261.869 190.905 260.392 190.84 259.086 190.18C255.166 188.197 250.679 188.197 246.781 189.966C244.282 187.56 240.901 186.065 237.161 186.065V167.484C244.844 167.484 251.097 161.231 251.097 153.548V134.968C251.097 127.285 244.844 121.032 237.161 121.032V102.452C244.844 102.452 251.097 96.1992 251.097 88.5161V69.9355C251.097 62.2524 244.844 56 237.161 56H97.8065C90.1234 56 83.871 62.2524 83.871 69.9355V88.5161C83.871 96.1992 90.1234 102.452 97.8065 102.452V121.032C90.1234 121.032 83.871 127.285 83.871 134.968V153.548C83.871 161.231 90.1234 167.484 97.8065 167.484V186.065C90.1234 186.065 83.871 192.317 83.871 200V218.581C83.871 226.264 90.1234 232.516 97.8065 232.516H112.68C104.993 240.069 99.1164 249.564 95.9066 260.429C73.7306 261.428 56 279.781 56 302.194C56 325.243 74.7525 344 97.8065 344H274.323C292.248 344 306.839 329.414 306.839 311.484C306.839 303.155 303.666 295.574 298.501 289.819C298.858 289.131 299.253 288.462 299.495 287.724C299.959 286.321 300.963 285.225 302.254 284.723C302.872 284.486 303.48 284.235 304.084 283.971C305.352 283.418 306.825 283.478 308.139 284.147C313.658 286.939 320.305 285.87 324.681 281.499L327.956 278.225C332.327 273.849 333.39 267.202 330.599 261.688C329.934 260.373 329.874 258.896 330.427 257.623C330.682 257.029 330.929 256.429 331.17 255.812C331.676 254.511 332.773 253.503 334.18 253.043C340.052 251.111 344 245.662 344 239.475V234.848C344 228.665 340.047 223.212 334.171 221.279ZM93.1613 88.5161V69.9355C93.1613 67.376 95.2423 65.2903 97.8065 65.2903H237.161C239.725 65.2903 241.806 67.376 241.806 69.9355V88.5161C241.806 91.0756 239.725 93.1613 237.161 93.1613H97.8065C95.2423 93.1613 93.1613 91.0756 93.1613 88.5161ZM107.097 102.452H227.871V121.032H107.097V102.452ZM93.1613 153.548V134.968C93.1613 132.408 95.2423 130.323 97.8065 130.323H237.161C239.725 130.323 241.806 132.408 241.806 134.968V153.548C241.806 156.108 239.725 158.194 237.161 158.194H97.8065C95.2423 158.194 93.1613 156.108 93.1613 153.548ZM107.097 167.484H227.871V186.065H107.097V167.484ZM97.8065 223.226C95.2423 223.226 93.1613 221.14 93.1613 218.581V200C93.1613 197.441 95.2423 195.355 97.8065 195.355H237.161C239.725 195.355 241.806 197.441 241.806 200V218.581C241.806 221.14 239.725 223.226 237.161 223.226H191.759C181.865 217.28 170.359 213.935 158.194 213.935C145.995 213.935 134.513 217.313 124.669 223.226H97.8065ZM230.068 251.617C227.825 251.278 225.539 251.097 223.226 251.097C221.168 251.097 219.143 251.231 217.155 251.492C213.801 244.278 209.253 237.891 203.795 232.516H223.463C223.337 233.287 223.226 234.058 223.226 234.848V239.475C223.226 244.529 225.892 249.062 230.068 251.617ZM274.323 334.71H97.8065C79.8808 334.71 65.2903 320.124 65.2903 302.194C65.2903 284.263 79.8808 269.677 97.8065 269.677C98.0573 269.677 98.2988 269.696 98.545 269.715L103.102 269.928L103.985 266.18C109.935 240.887 132.222 223.226 158.194 223.226C179.454 223.226 198.449 235.029 207.897 253.693C189.795 260.039 176.774 277.305 176.774 297.548H186.065C186.065 277.059 202.736 260.387 223.226 260.387C239.637 260.387 254.297 271.396 258.887 287.162L260.35 292.202L265.172 290.135C268.079 288.89 271.155 288.258 274.323 288.258C287.129 288.258 297.548 298.677 297.548 311.484C297.548 324.291 287.129 334.71 274.323 334.71ZM334.71 239.475C334.71 241.635 333.325 243.539 331.277 244.217C327.222 245.546 324.026 248.547 322.516 252.435C322.316 252.936 322.112 253.438 321.898 253.93C320.245 257.735 320.393 262.087 322.302 265.878C323.278 267.805 322.906 270.133 321.383 271.656L318.108 274.931C316.575 276.455 314.262 276.836 312.329 275.855C308.543 273.942 304.2 273.798 300.387 275.451C299.899 275.66 299.406 275.865 298.9 276.065C295.379 277.435 292.662 280.217 291.171 283.729C286.247 280.728 280.491 278.968 274.323 278.968C271.559 278.968 268.846 279.311 266.207 279.994C262.236 270.295 255.101 262.361 246.257 257.275C246.075 256.123 245.792 254.989 245.332 253.93C245.114 253.438 244.909 252.936 244.714 252.439C243.2 248.542 239.999 245.546 235.949 244.213C233.896 243.544 232.516 241.635 232.516 239.475V234.848C232.516 234.017 232.786 233.241 233.176 232.516H237.161C244.844 232.516 251.097 226.264 251.097 218.581V200C251.097 199.415 250.995 198.862 250.925 198.295C252.198 197.821 253.624 197.821 254.897 198.467C258.682 200.381 263.035 200.53 266.839 198.871C267.327 198.662 267.819 198.458 268.326 198.263C272.223 196.744 275.219 193.548 276.552 189.493C277.23 187.444 279.135 186.065 281.3 186.065H285.926C288.091 186.065 289.995 187.444 290.669 189.507C292.002 193.557 295.003 196.748 298.905 198.267C299.402 198.462 299.894 198.662 300.377 198.871C304.182 200.525 308.543 200.381 312.325 198.467C314.257 197.492 316.57 197.863 318.103 199.396L321.373 202.662C322.902 204.195 323.273 206.517 322.298 208.45C320.389 212.235 320.24 216.593 321.889 220.392C322.107 220.885 322.312 221.386 322.507 221.883C324.021 225.781 327.222 228.777 331.272 230.11C333.33 230.779 334.71 232.688 334.71 234.848V239.475Z" fill="#3A9DD0"/>
<path d="M112.889 268.646L121.952 270.704C125.812 253.693 140.718 241.806 158.194 241.806V232.516C136.352 232.516 117.72 247.376 112.889 268.646Z" fill="#3A9DD0"/>
<path d="M223.226 269.677V278.968C233.473 278.968 241.806 287.301 241.806 297.548H251.097C251.097 282.178 238.597 269.677 223.226 269.677Z" fill="#3A9DD0"/>
<rect width="400" height="400" rx="40" fill="#3A9DD0" fill-opacity="0.3"/>
</svg>
