<svg width="400" height="400" viewBox="0 0 400 400" fill="none" xmlns="http://www.w3.org/2000/svg">
<path d="M288.258 223.044V175.956C319.385 173.56 344 147.433 344 115.597C344 82.1846 316.909 55 283.613 55C250.316 55 223.226 82.1846 223.226 115.597C223.226 147.433 247.841 173.56 278.968 175.956V194.839H258.455C254.725 186.243 246.006 180.309 235.972 180.892C231.833 164.629 217.136 152.887 200 152.887C182.864 152.887 168.167 164.629 164.028 180.892C154.036 180.309 145.294 186.243 141.55 194.839H121.032V175.956C152.159 173.56 176.774 147.433 176.774 115.597C176.774 82.1846 149.684 55 116.387 55C83.0906 55 56 82.1846 56 115.597C56 147.433 80.6147 173.56 111.742 175.956V223.04C80.6147 225.44 56 251.567 56 283.403C56 316.815 83.0906 344 116.387 344C149.684 344 176.774 316.815 176.774 283.403C176.774 251.567 152.159 225.44 121.032 223.044V204.161H139.613C139.613 217.012 150.032 227.468 162.839 227.468H237.161C249.968 227.468 260.387 217.012 260.387 204.161H278.968V223.044C247.841 225.44 223.226 251.567 223.226 283.403C223.226 316.815 250.316 344 283.613 344C316.909 344 344 316.815 344 283.403C344 251.567 319.385 225.44 288.258 223.044ZM93.1613 103.352C93.1613 92.1132 102.275 82.9677 113.475 82.9677H119.3C130.499 82.9677 139.613 92.1132 139.613 103.352C139.613 105.864 139.102 108.311 138.219 110.628C136.909 107.896 134.74 105.612 131.911 104.191L116.387 96.4016L100.863 104.191C98.0341 105.612 95.8648 107.896 94.5548 110.628C93.6723 108.311 93.1613 105.864 93.1613 103.352ZM111.742 138.903C106.618 138.903 102.452 134.722 102.452 129.581V116.697C102.452 114.916 103.436 113.317 105.02 112.525L116.387 106.824L127.754 112.53C129.338 113.322 130.323 114.916 130.323 116.697V129.581C130.323 134.722 126.156 138.903 121.032 138.903H111.742ZM116.387 148.226C126.267 148.226 135.358 152.64 141.494 160.201C134.071 164.428 125.515 166.871 116.387 166.871C107.259 166.871 98.703 164.428 91.28 160.201C97.4163 152.64 106.507 148.226 116.387 148.226ZM65.2903 115.597C65.2903 87.326 88.2142 64.3226 116.387 64.3226C144.56 64.3226 167.484 87.326 167.484 115.597C167.484 131.361 160.344 145.476 149.154 154.887C145.062 149.657 139.864 145.615 134.02 142.879C137.462 139.495 139.613 134.792 139.613 129.581V126.332L143.933 119.829C147.185 114.926 148.903 109.234 148.903 103.352C148.903 86.9718 135.623 73.6452 119.3 73.6452H113.475C97.1515 73.6452 83.871 86.9718 83.871 103.352C83.871 109.234 85.5897 114.926 88.8413 119.829L93.1613 126.332V129.581C93.1613 134.792 95.312 139.495 98.7541 142.879C92.9105 145.615 87.7125 149.657 83.6201 154.887C72.4299 145.476 65.2903 131.361 65.2903 115.597ZM88.5161 302.048V278.742C88.5161 263.318 101.016 250.774 116.387 250.774C131.758 250.774 144.258 263.318 144.258 278.742V302.048C144.258 306.514 142.126 310.583 138.591 313.194C137.118 312.261 135.595 311.427 134.02 310.69C137.462 307.302 139.613 302.598 139.613 297.387V284.503C139.613 279.171 136.659 274.379 131.911 271.992L116.387 264.208L100.863 271.997C96.1156 274.379 93.1613 279.175 93.1613 284.503V297.387C93.1613 302.598 95.312 307.302 98.7541 310.686C97.1747 311.427 95.6557 312.257 94.1832 313.189C90.6483 310.583 88.5161 306.514 88.5161 302.048ZM111.742 306.71C106.618 306.71 102.452 302.529 102.452 297.387V284.503C102.452 282.723 103.436 281.124 105.02 280.331L116.387 274.631L127.754 280.336C129.338 281.129 130.323 282.723 130.323 284.503V297.387C130.323 302.529 126.156 306.71 121.032 306.71H111.742ZM91.28 328.007C97.4163 320.447 106.507 316.032 116.387 316.032C126.267 316.032 135.358 320.447 141.494 328.007C134.071 332.235 125.515 334.677 116.387 334.677C107.259 334.677 98.703 332.235 91.28 328.007ZM167.484 283.403C167.484 299.168 160.344 313.282 149.154 322.693C148.174 321.439 147.115 320.279 146.014 319.16C150.766 314.825 153.548 308.691 153.548 302.048V278.742C153.548 258.181 136.877 241.452 116.387 241.452C95.8973 241.452 79.2258 258.181 79.2258 278.742V302.048C79.2258 308.691 82.0083 314.825 86.7603 319.16C85.664 320.279 84.6003 321.444 83.6201 322.693C72.4299 313.282 65.2903 299.168 65.2903 283.403C65.2903 255.133 88.2142 232.129 116.387 232.129C144.56 232.129 167.484 255.133 167.484 283.403ZM237.161 218.145H162.839C155.156 218.145 148.903 211.871 148.903 204.161C148.903 196.452 155.156 190.177 162.839 190.177C163.926 190.177 165.092 190.359 166.518 190.751L171.711 192.177L172.357 186.812C174.029 172.786 185.916 162.21 200 162.21C214.084 162.21 225.971 172.786 227.643 186.807L228.289 192.172L233.482 190.746C234.908 190.359 236.074 190.177 237.161 190.177C244.844 190.177 251.097 196.452 251.097 204.161C251.097 211.871 244.844 218.145 237.161 218.145ZM255.742 134.242V110.935C255.742 95.5113 268.242 82.9677 283.613 82.9677C298.984 82.9677 311.484 95.5113 311.484 110.935V134.242C311.484 138.707 309.352 142.777 305.817 145.387C304.344 144.455 302.821 143.62 301.246 142.884C304.688 139.495 306.839 134.792 306.839 129.581V116.697C306.839 111.364 303.884 106.573 299.137 104.186L283.613 96.4016L268.089 104.191C263.341 106.573 260.387 111.369 260.387 116.697V129.581C260.387 134.792 262.538 139.495 265.98 142.879C264.401 143.62 262.882 144.45 261.409 145.382C257.874 142.777 255.742 138.707 255.742 134.242ZM278.968 138.903C273.844 138.903 269.677 134.722 269.677 129.581V116.697C269.677 114.916 270.662 113.317 272.246 112.525L283.613 106.824L294.98 112.53C296.564 113.322 297.548 114.916 297.548 116.697V129.581C297.548 134.722 293.382 138.903 288.258 138.903H278.968ZM283.613 148.226C293.493 148.226 302.584 152.64 308.72 160.201C301.297 164.428 292.741 166.871 283.613 166.871C274.485 166.871 265.929 164.428 258.506 160.201C264.642 152.64 273.733 148.226 283.613 148.226ZM232.516 115.597C232.516 87.326 255.44 64.3226 283.613 64.3226C311.786 64.3226 334.71 87.326 334.71 115.597C334.71 131.361 327.57 145.476 316.38 154.887C315.4 153.633 314.341 152.472 313.24 151.354C317.992 147.019 320.774 140.884 320.774 134.242V110.935C320.774 90.3745 304.103 73.6452 283.613 73.6452C263.123 73.6452 246.452 90.3745 246.452 110.935V134.242C246.452 140.884 249.234 147.019 253.986 151.354C252.89 152.472 251.826 153.638 250.846 154.887C239.656 145.476 232.516 131.361 232.516 115.597ZM258.506 328.007C264.642 320.447 273.733 316.032 283.613 316.032C293.493 316.032 302.584 320.447 308.72 328.007C301.297 332.235 292.741 334.677 283.613 334.677C274.485 334.677 265.929 332.235 258.506 328.007ZM260.387 271.158C260.387 259.92 269.501 250.774 280.7 250.774H286.525C297.725 250.774 306.839 259.92 306.839 271.158C306.839 273.67 306.328 276.118 305.445 278.434C304.135 275.703 301.966 273.419 299.137 271.997L283.613 264.208L268.089 271.997C265.26 273.419 263.091 275.703 261.781 278.434C260.898 276.118 260.387 273.67 260.387 271.158ZM278.968 306.71C273.844 306.71 269.677 302.529 269.677 297.387V284.503C269.677 282.723 270.662 281.124 272.246 280.331L283.613 274.631L294.98 280.336C296.564 281.129 297.548 282.723 297.548 284.503V297.387C297.548 302.529 293.382 306.71 288.258 306.71H278.968ZM316.38 322.693C312.288 317.463 307.09 313.422 301.246 310.686C304.688 307.302 306.839 302.598 306.839 297.387V294.138L311.159 287.636C314.41 282.732 316.129 277.041 316.129 271.158C316.129 254.778 302.849 241.452 286.525 241.452H280.7C264.377 241.452 251.097 254.778 251.097 271.158C251.097 277.041 252.815 282.732 256.067 287.636L260.387 294.138V297.387C260.387 302.598 262.538 307.302 265.98 310.686C260.136 313.422 254.938 317.463 250.846 322.693C239.656 313.282 232.516 299.168 232.516 283.403C232.516 255.133 255.44 232.129 283.613 232.129C311.786 232.129 334.71 255.133 334.71 283.403C334.71 299.168 327.57 313.282 316.38 322.693Z" fill="#0B68B8"/>
<path d="M176.774 199.5H186.065V208.823H176.774V199.5Z" fill="#0B68B8"/>
<path d="M213.935 199.5H223.226V208.823H213.935V199.5Z" fill="#0B68B8"/>
<path d="M195.355 199.5H204.645V208.823H195.355V199.5Z" fill="#0B68B8"/>
<rect width="400" height="400" rx="40" fill="#0B68B8" fill-opacity="0.3"/>
</svg>
