<svg width="400" height="400" viewBox="0 0 400 400" fill="none" xmlns="http://www.w3.org/2000/svg">
<path d="M320.774 101.613H227.871C223.203 101.613 218.869 103.03 215.222 105.421C208.947 102.084 201.682 100.848 194.598 102.079C190.343 75.2673 167.191 55 139.613 55C111.937 55 88.9714 74.8711 84.6281 101.846C68.5234 103.78 56 117.573 56 134.242C56 152.235 70.5858 166.871 88.5161 166.871H204.645V222.806H178.697L150.826 194.839H130.323V176.194H74.5806V222.806H130.323V204.161H146.98L174.851 232.129H204.645V250.774H111.742V232.129H56V278.742H111.742V260.097H204.645V278.742H174.851L146.98 306.71H130.323V288.065H74.5806V334.677H130.323V316.032H150.826L178.697 288.065H204.645V320.694C204.645 333.545 215.064 344 227.871 344H320.774C333.581 344 344 333.545 344 320.694V124.919C344 112.068 333.581 101.613 320.774 101.613ZM121.032 213.484H83.871V185.516H121.032V213.484ZM102.452 269.419H65.2903V241.452H102.452V269.419ZM121.032 325.355H83.871V297.387H121.032V325.355ZM320.774 110.935C328.457 110.935 334.71 117.21 334.71 124.919V138.903H213.935V124.919C213.935 117.21 220.188 110.935 227.871 110.935H320.774ZM88.5161 157.548C75.7094 157.548 65.2903 147.093 65.2903 134.242C65.2903 121.391 75.7094 110.935 88.2839 110.931L92.9987 110.949L93.3796 106.708C95.5443 82.5436 115.421 64.3226 139.613 64.3226C164.167 64.3226 184.508 83.6063 185.921 108.223L186.278 114.455L192.136 112.339C197.51 110.395 203.228 110.535 208.301 112.478C206.015 116.086 204.645 120.337 204.645 124.919V157.548H88.5161ZM320.774 334.677H227.871C220.188 334.677 213.935 328.403 213.935 320.694V320.572C217.828 323.532 222.622 325.355 227.871 325.355H320.774C326.023 325.355 330.817 323.532 334.71 320.572V320.694C334.71 328.403 328.457 334.677 320.774 334.677ZM320.774 316.032H227.871C220.188 316.032 213.935 309.758 213.935 302.048V148.226H334.71V302.048C334.71 309.758 328.457 316.032 320.774 316.032Z" fill="#CD373A"/>
<path d="M255.742 297.387H302.194V306.71H255.742V297.387Z" fill="#CD373A"/>
<path d="M227.871 129.581C230.436 129.581 232.516 127.494 232.516 124.919C232.516 122.345 230.436 120.258 227.871 120.258C225.306 120.258 223.226 122.345 223.226 124.919C223.226 127.494 225.306 129.581 227.871 129.581Z" fill="#CD373A"/>
<path d="M251.097 120.258H297.548V129.581H251.097V120.258Z" fill="#CD373A"/>
<path d="M312.757 206.706L295.012 188.9L289.099 191.674L286.869 185.516H261.781L259.551 191.674L253.638 188.9L235.893 206.706L238.657 212.64L232.516 214.878V240.053L238.652 242.291L235.889 248.224L253.633 266.031L259.546 263.257L261.776 269.419H286.865L289.094 263.262L295.007 266.035L312.752 248.229L309.988 242.295L316.129 240.058V214.882L309.993 212.645L312.757 206.706ZM306.839 233.523L303.016 234.916L300.935 235.914L298.974 240.664L301.58 246.262L293.047 254.825L287.468 252.21L282.456 254.293L280.357 260.097H268.284L266.895 256.261L265.901 254.172L261.167 252.205L255.589 254.82L247.055 246.257L249.661 240.659L247.585 235.63L241.806 233.523V221.408L245.629 220.014L247.71 219.017L249.671 214.267L247.065 208.669L255.598 200.106L261.181 202.726L266.184 200.642L268.289 194.839H280.361L281.75 198.675L282.735 200.759L287.468 202.73L293.052 200.111L301.585 208.673L298.979 214.272L301.055 219.301L306.839 221.413V233.523Z" fill="#CD373A"/>
<path d="M274.323 204.161C261.516 204.161 251.097 214.617 251.097 227.468C251.097 240.319 261.516 250.774 274.323 250.774C287.129 250.774 297.548 240.319 297.548 227.468C297.548 214.617 287.129 204.161 274.323 204.161ZM274.323 241.452C266.639 241.452 260.387 235.178 260.387 227.468C260.387 219.758 266.639 213.484 274.323 213.484C282.006 213.484 288.258 219.758 288.258 227.468C288.258 235.178 282.006 241.452 274.323 241.452Z" fill="#CD373A"/>
<path d="M102.452 110.935H111.742C111.742 95.5113 124.242 82.9677 139.613 82.9677V73.6452C119.123 73.6452 102.452 90.3745 102.452 110.935Z" fill="#CD373A"/>
<path d="M147.579 84.1284C150.418 84.9768 153.093 86.2679 155.537 87.9833L160.855 80.3341C157.594 78.0547 154.022 76.3254 150.232 75.1927L147.579 84.1284Z" fill="#CD373A"/>
<rect width="400" height="400" rx="40" fill="#CD373A" fill-opacity="0.3"/>
</svg>
