<svg width="1324" height="305" viewBox="0 0 1324 305" fill="none" xmlns="http://www.w3.org/2000/svg">
<path d="M472.6 145.6C455 145.6 441 140.8 430.6 131.2C420.2 121.467 415 107.6 415 89.6V56C415 38 420.2 24.2 430.6 14.6C441 4.86667 455 0 472.6 0C490.2 0 504.2 4.86667 514.6 14.6C525 24.2 530.2 38 530.2 56V89.6C530.2 107.6 525 121.467 514.6 131.2C504.2 140.8 490.2 145.6 472.6 145.6ZM472.6 122C482.467 122 490.133 119.133 495.6 113.4C501.067 107.667 503.8 100 503.8 90.4V55.2C503.8 45.6 501.067 37.9333 495.6 32.2C490.133 26.4667 482.467 23.6 472.6 23.6C462.867 23.6 455.2 26.4667 449.6 32.2C444.133 37.9333 441.4 45.6 441.4 55.2V90.4C441.4 100 444.133 107.667 449.6 113.4C455.2 119.133 462.867 122 472.6 122Z" fill="white"/>
<path d="M554.156 182.8V43.6H578.956V55.6H582.556C584.823 51.7333 588.356 48.3333 593.156 45.4C597.956 42.3333 604.823 40.8 613.756 40.8C621.756 40.8 629.156 42.8 635.956 46.8C642.756 50.6667 648.223 56.4 652.356 64C656.49 71.6 658.556 80.8 658.556 91.6V94.8C658.556 105.6 656.49 114.8 652.356 122.4C648.223 130 642.756 135.8 635.956 139.8C629.156 143.667 621.756 145.6 613.756 145.6C607.756 145.6 602.69 144.867 598.556 143.4C594.556 142.067 591.29 140.333 588.756 138.2C586.356 135.933 584.423 133.667 582.956 131.4H579.356V182.8H554.156ZM606.156 123.6C614.023 123.6 620.49 121.133 625.556 116.2C630.756 111.133 633.356 103.8 633.356 94.2V92.2C633.356 82.6 630.756 75.3333 625.556 70.4C620.356 65.3333 613.89 62.8 606.156 62.8C598.423 62.8 591.956 65.3333 586.756 70.4C581.556 75.3333 578.956 82.6 578.956 92.2V94.2C578.956 103.8 581.556 111.133 586.756 116.2C591.956 121.133 598.423 123.6 606.156 123.6Z" fill="white"/>
<path d="M716.375 142.8C709.842 142.8 704.508 140.8 700.375 136.8C696.375 132.667 694.375 127.2 694.375 120.4V64.4H669.575V43.6H694.375V12.8H719.575V43.6H746.775V64.4H719.575V116C719.575 120 721.442 122 725.175 122H744.375V142.8H716.375Z" fill="white"/>
<path d="M769.586 142.8V43.6H794.786V142.8H769.586ZM782.186 32C777.653 32 773.786 30.5333 770.586 27.6C767.519 24.6667 765.986 20.8 765.986 16C765.986 11.2 767.519 7.33334 770.586 4.4C773.786 1.46667 777.653 0 782.186 0C786.853 0 790.719 1.46667 793.786 4.4C796.853 7.33334 798.386 11.2 798.386 16C798.386 20.8 796.853 24.6667 793.786 27.6C790.719 30.5333 786.853 32 782.186 32Z" fill="white"/>
<path d="M822.711 142.8V43.6H847.511V54.4H851.111C852.844 51.0667 855.711 48.2 859.711 45.8C863.711 43.2667 868.978 42 875.511 42C882.578 42 888.244 43.4 892.511 46.2C896.778 48.8667 900.044 52.4 902.311 56.8H905.911C908.178 52.5333 911.378 49 915.511 46.2C919.644 43.4 925.511 42 933.111 42C939.244 42 944.778 43.3333 949.711 46C954.778 48.5333 958.778 52.4667 961.711 57.8C964.778 63 966.311 69.6 966.311 77.6V142.8H941.111V79.4C941.111 73.9333 939.711 69.8667 936.911 67.2C934.111 64.4 930.178 63 925.111 63C919.378 63 914.911 64.8667 911.711 68.6C908.644 72.2 907.111 77.4 907.111 84.2V142.8H881.911V79.4C881.911 73.9333 880.511 69.8667 877.711 67.2C874.911 64.4 870.978 63 865.911 63C860.178 63 855.711 64.8667 852.511 68.6C849.444 72.2 847.911 77.4 847.911 84.2V142.8H822.711Z" fill="white"/>
<path d="M993.414 142.8V43.6H1018.61V142.8H993.414ZM1006.01 32C1001.48 32 997.614 30.5333 994.414 27.6C991.347 24.6667 989.814 20.8 989.814 16C989.814 11.2 991.347 7.33334 994.414 4.4C997.614 1.46667 1001.48 0 1006.01 0C1010.68 0 1014.55 1.46667 1017.61 4.4C1020.68 7.33334 1022.21 11.2 1022.21 16C1022.21 20.8 1020.68 24.6667 1017.61 27.6C1014.55 30.5333 1010.68 32 1006.01 32Z" fill="white"/>
<path d="M1042.94 142.8V112.8L1097.34 67.6V64.4H1044.94V43.6H1124.94V73.6L1070.54 118.8V122H1126.54V142.8H1042.94Z" fill="white"/>
<path d="M1193.5 145.6C1183.63 145.6 1174.9 143.533 1167.3 139.4C1159.83 135.133 1153.96 129.2 1149.7 121.6C1145.56 113.867 1143.5 104.8 1143.5 94.4V92C1143.5 81.6 1145.56 72.6 1149.7 65C1153.83 57.2667 1159.63 51.3333 1167.1 47.2C1174.56 42.9333 1183.23 40.8 1193.1 40.8C1202.83 40.8 1211.3 43 1218.5 47.4C1225.7 51.6667 1231.3 57.6667 1235.3 65.4C1239.3 73 1241.3 81.8667 1241.3 92V100.6H1169.1C1169.36 107.4 1171.9 112.933 1176.7 117.2C1181.5 121.467 1187.36 123.6 1194.3 123.6C1201.36 123.6 1206.56 122.067 1209.9 119C1213.23 115.933 1215.76 112.533 1217.5 108.8L1238.1 119.6C1236.23 123.067 1233.5 126.867 1229.9 131C1226.43 135 1221.76 138.467 1215.9 141.4C1210.03 144.2 1202.56 145.6 1193.5 145.6ZM1169.3 81.8H1215.7C1215.16 76.0667 1212.83 71.4667 1208.7 68C1204.7 64.5333 1199.43 62.8 1192.9 62.8C1186.1 62.8 1180.7 64.5333 1176.7 68C1172.7 71.4667 1170.23 76.0667 1169.3 81.8Z" fill="white"/>
<path d="M1263.73 142.8V43.6H1288.53V54.8H1292.13C1293.59 50.8 1295.99 47.8667 1299.33 46C1302.79 44.1333 1306.79 43.2 1311.33 43.2H1323.33V65.6H1310.93C1304.53 65.6 1299.26 67.3333 1295.13 70.8C1290.99 74.1333 1288.93 79.3333 1288.93 86.4V142.8H1263.73Z" fill="white"/>
<path fill-rule="evenodd" clip-rule="evenodd" d="M223.914 225.034C223.914 197.357 246.318 174.919 273.956 174.919C301.595 174.919 323.999 197.357 323.999 225.034C323.999 252.711 301.594 275.149 273.956 275.149C246.319 275.149 223.914 252.711 223.914 225.034ZM270.466 245.189L303.037 212.266C305.075 210.214 305.064 206.896 303.016 204.856C300.968 202.816 297.655 202.825 295.617 204.876L266.692 234.116L252.235 220.003C250.164 217.986 246.851 218.032 244.836 220.106C242.822 222.18 242.868 225.498 244.939 227.515L263.108 245.251C265.161 247.25 268.443 247.228 270.466 245.189ZM241.062 174.136C224.426 184.941 213.42 203.699 213.42 225.034C213.42 247.403 225.519 266.938 243.519 277.445V287.693C243.519 297.212 235.742 305 226.237 305H97.7627C88.2572 305 80.4805 297.212 80.4805 287.693V183.001C80.4805 173.482 88.2572 165.694 97.7627 165.694H106.342V136.364C106.342 105.682 131.362 80.6268 162 80.6268C192.638 80.6268 217.658 105.682 217.658 136.364V165.694H226.237C232.512 165.694 238.034 169.09 241.062 174.136ZM171.746 258.29V242.269C178.426 238.754 182.983 231.739 182.983 223.657C182.983 212.051 173.588 202.643 161.999 202.643C150.411 202.643 141.016 212.051 141.016 223.657C141.016 231.739 145.572 238.753 152.252 242.269V258.29C152.252 263.658 156.638 268.05 161.999 268.05C167.36 268.05 171.746 263.658 171.746 258.29ZM132.796 136.364V165.694H191.204V136.364C191.204 120.305 178.035 107.119 162 107.119C145.965 107.119 132.796 120.305 132.796 136.364Z" fill="#CD373A"/>
<path d="M69.9873 222.75C31.3782 222.078 0 190.251 0 151.434C0 116.583 25.535 86.592 59.8698 81.0203C59.8665 80.7142 59.858 80.4088 59.858 80.102C59.858 35.8625 95.6692 0 139.845 0C166.388 0 189.907 12.9503 204.456 32.8819C211.362 28.1568 219.711 25.3917 228.705 25.3917C252.473 25.3917 271.74 44.6868 271.74 68.4876C271.74 73.2515 270.966 77.8341 269.541 82.1184C300.694 89.7217 324 117.982 324 151.434C324 162.486 321.453 172.969 316.923 182.331C305.956 171.264 290.756 164.41 273.957 164.41C265.577 164.41 257.594 166.116 250.337 169.199C245.837 161.361 237.636 155.903 228.152 155.251V136.364C228.152 99.8819 198.43 70.1178 162 70.1178C125.57 70.1178 95.8483 99.8819 95.8483 136.364V155.251C81.4381 156.242 69.9866 168.327 69.9866 183.001L69.9873 222.75Z" fill="#CD373A"/>
<path d="M440.407 305C434.178 305 429.219 303.22 425.532 299.659C421.844 296.049 420 290.808 420 283.934V272.066C420 265.192 421.844 259.975 425.532 256.415C429.219 252.805 434.178 251 440.407 251C446.586 251 451.321 252.706 454.61 256.118C457.949 259.53 459.618 264.203 459.618 270.137V270.508H453.414V269.915C453.414 266.008 452.342 262.819 450.199 260.346C448.106 257.824 444.842 256.563 440.407 256.563C435.972 256.563 432.508 257.923 430.017 260.643C427.525 263.313 426.279 267.071 426.279 271.918V284.082C426.279 288.929 427.525 292.712 430.017 295.431C432.508 298.102 435.972 299.437 440.407 299.437C444.842 299.437 448.106 298.201 450.199 295.728C452.342 293.206 453.414 289.992 453.414 286.085V284.898H459.618V285.863C459.618 291.797 457.949 296.47 454.61 299.882C451.321 303.294 446.586 305 440.407 305Z" fill="white" fill-opacity="0.4"/>
<path d="M494.123 303.962V252.038H500.402V298.324H526.864V303.962H494.123Z" fill="white" fill-opacity="0.4"/>
<path d="M577.124 305C570.895 305 565.911 303.22 562.174 299.659C558.486 296.049 556.642 290.808 556.642 283.934V272.066C556.642 265.192 558.486 259.975 562.174 256.415C565.911 252.805 570.895 251 577.124 251C583.403 251 588.386 252.805 592.074 256.415C595.812 259.975 597.68 265.192 597.68 272.066V283.934C597.68 290.808 595.812 296.049 592.074 299.659C588.386 303.22 583.403 305 577.124 305ZM577.124 299.437C581.659 299.437 585.172 298.102 587.664 295.431C590.155 292.712 591.401 288.953 591.401 284.157V271.843C591.401 267.047 590.155 263.313 587.664 260.643C585.172 257.923 581.659 256.563 577.124 256.563C572.639 256.563 569.15 257.923 566.659 260.643C564.167 263.313 562.921 267.047 562.921 271.843V284.157C562.921 288.953 564.167 292.712 566.659 295.431C569.15 298.102 572.639 299.437 577.124 299.437Z" fill="white" fill-opacity="0.4"/>
<path d="M651.721 305C647.834 305 644.445 304.308 641.555 302.923C638.665 301.538 636.422 299.486 634.827 296.766C633.233 293.997 632.435 290.61 632.435 286.604V252.038H638.64V286.679C638.64 290.931 639.786 294.121 642.078 296.247C644.371 298.374 647.585 299.437 651.721 299.437C655.857 299.437 659.072 298.374 661.364 296.247C663.656 294.121 664.803 290.931 664.803 286.679V252.038H671.082V286.604C671.082 290.61 670.284 293.997 668.69 296.766C667.095 299.486 664.827 301.538 661.887 302.923C658.997 304.308 655.608 305 651.721 305Z" fill="white" fill-opacity="0.4"/>
<path d="M704.795 303.962V298.398H712.121V257.602H704.795V252.038H725.202C732.079 252.038 737.387 253.769 741.124 257.231C744.912 260.692 746.805 266.008 746.805 273.179V282.821C746.805 290.041 744.912 295.382 741.124 298.843C737.387 302.255 732.079 303.962 725.202 303.962H704.795ZM718.4 298.324H725.202C730.285 298.324 734.123 297.088 736.714 294.615C739.305 292.143 740.601 288.31 740.601 283.118V272.956C740.601 267.665 739.305 263.808 736.714 261.385C734.123 258.962 730.285 257.75 725.202 257.75H718.4V298.324Z" fill="white" fill-opacity="0.4"/>
<path d="M842.707 305C838.919 305 835.531 304.332 832.54 302.997C829.55 301.662 827.183 299.659 825.439 296.989C823.745 294.269 822.898 290.882 822.898 286.827V285.269H829.102V286.827C829.102 291.129 830.373 294.343 832.914 296.47C835.456 298.547 838.72 299.585 842.707 299.585C846.793 299.585 849.908 298.67 852.05 296.841C854.193 295.011 855.265 292.712 855.265 289.942C855.265 288.014 854.766 286.481 853.77 285.343C852.823 284.206 851.477 283.291 849.733 282.599C847.989 281.857 845.946 281.214 843.604 280.67L839.717 279.706C836.677 278.915 833.986 277.951 831.643 276.813C829.301 275.676 827.457 274.192 826.112 272.363C824.816 270.484 824.168 268.085 824.168 265.168C824.168 262.25 824.891 259.728 826.336 257.602C827.831 255.475 829.899 253.843 832.54 252.706C835.232 251.569 838.321 251 841.81 251C845.348 251 848.512 251.618 851.303 252.854C854.143 254.041 856.361 255.821 857.956 258.195C859.6 260.519 860.423 263.462 860.423 267.022V270.137H854.218V267.022C854.218 264.5 853.67 262.473 852.574 260.94C851.527 259.407 850.057 258.269 848.163 257.527C846.32 256.786 844.202 256.415 841.81 256.415C838.371 256.415 835.605 257.181 833.512 258.714C831.419 260.198 830.373 262.324 830.373 265.093C830.373 266.923 830.821 268.407 831.718 269.544C832.615 270.681 833.886 271.621 835.531 272.363C837.175 273.055 839.143 273.673 841.436 274.217L845.323 275.181C848.363 275.824 851.079 276.714 853.471 277.852C855.913 278.94 857.856 280.448 859.301 282.376C860.746 284.255 861.469 286.728 861.469 289.794C861.469 292.86 860.697 295.53 859.152 297.805C857.607 300.08 855.414 301.86 852.574 303.146C849.783 304.382 846.494 305 842.707 305Z" fill="white" fill-opacity="0.4"/>
<path d="M895.801 303.962V252.038H928.018V257.676H902.08V275.033H925.925V280.67H902.08V298.324H928.392V303.962H895.801Z" fill="white" fill-opacity="0.4"/>
<path d="M962.589 303.962V252.038H983.743C986.983 252.038 989.823 252.607 992.265 253.745C994.757 254.832 996.7 256.415 998.095 258.492C999.491 260.519 1000.19 262.967 1000.19 265.835V266.651C1000.19 270.063 999.366 272.758 997.722 274.736C996.077 276.714 994.134 278.049 991.891 278.742V279.78C993.685 279.83 995.155 280.423 996.301 281.56C997.497 282.648 998.095 284.305 998.095 286.53V303.962H991.891V287.272C991.891 285.788 991.468 284.651 990.62 283.86C989.823 283.069 988.602 282.673 986.958 282.673H968.868V303.962H962.589ZM968.868 277.036H983.145C986.584 277.036 989.225 276.22 991.069 274.588C992.963 272.907 993.909 270.582 993.909 267.615V267.096C993.909 264.129 992.988 261.83 991.144 260.198C989.3 258.516 986.634 257.676 983.145 257.676H968.868V277.036Z" fill="white" fill-opacity="0.4"/>
<path d="M1045.2 303.962L1029.43 252.038H1035.93L1050.21 300.179H1051.18L1065.46 252.038H1071.96L1056.19 303.962H1045.2Z" fill="white" fill-opacity="0.4"/>
<path d="M1104.49 303.962V252.038H1110.77V303.962H1104.49Z" fill="white" fill-opacity="0.4"/>
<path d="M1166.32 305C1160.09 305 1155.13 303.22 1151.44 299.659C1147.75 296.049 1145.91 290.808 1145.91 283.934V272.066C1145.91 265.192 1147.75 259.975 1151.44 256.415C1155.13 252.805 1160.09 251 1166.32 251C1172.5 251 1177.23 252.706 1180.52 256.118C1183.86 259.53 1185.53 264.203 1185.53 270.137V270.508H1179.32V269.915C1179.32 266.008 1178.25 262.819 1176.11 260.346C1174.02 257.824 1170.75 256.563 1166.32 256.563C1161.88 256.563 1158.42 257.923 1155.93 260.643C1153.43 263.313 1152.19 267.071 1152.19 271.918V284.082C1152.19 288.929 1153.43 292.712 1155.93 295.431C1158.42 298.102 1161.88 299.437 1166.32 299.437C1170.75 299.437 1174.02 298.201 1176.11 295.728C1178.25 293.206 1179.32 289.992 1179.32 286.085V284.898H1185.53V285.863C1185.53 291.797 1183.86 296.47 1180.52 299.882C1177.23 303.294 1172.5 305 1166.32 305Z" fill="white" fill-opacity="0.4"/>
<path d="M1220.03 303.962V252.038H1252.25V257.676H1226.31V275.033H1250.16V280.67H1226.31V298.324H1252.62V303.962H1220.03Z" fill="white" fill-opacity="0.4"/>
<path d="M1304.24 305C1300.45 305 1297.06 304.332 1294.07 302.997C1291.08 301.662 1288.71 299.659 1286.97 296.989C1285.28 294.269 1284.43 290.882 1284.43 286.827V285.269H1290.63V286.827C1290.63 291.129 1291.9 294.343 1294.45 296.47C1296.99 298.547 1300.25 299.585 1304.24 299.585C1308.32 299.585 1311.44 298.67 1313.58 296.841C1315.72 295.011 1316.8 292.712 1316.8 289.942C1316.8 288.014 1316.3 286.481 1315.3 285.343C1314.35 284.206 1313.01 283.291 1311.26 282.599C1309.52 281.857 1307.48 281.214 1305.13 280.67L1301.25 279.706C1298.21 278.915 1295.52 277.951 1293.17 276.813C1290.83 275.676 1288.99 274.192 1287.64 272.363C1286.35 270.484 1285.7 268.085 1285.7 265.168C1285.7 262.25 1286.42 259.728 1287.87 257.602C1289.36 255.475 1291.43 253.843 1294.07 252.706C1296.76 251.569 1299.85 251 1303.34 251C1306.88 251 1310.04 251.618 1312.83 252.854C1315.67 254.041 1317.89 255.821 1319.49 258.195C1321.13 260.519 1321.95 263.462 1321.95 267.022V270.137H1315.75V267.022C1315.75 264.5 1315.2 262.473 1314.1 260.94C1313.06 259.407 1311.59 258.269 1309.69 257.527C1307.85 256.786 1305.73 256.415 1303.34 256.415C1299.9 256.415 1297.14 257.181 1295.04 258.714C1292.95 260.198 1291.9 262.324 1291.9 265.093C1291.9 266.923 1292.35 268.407 1293.25 269.544C1294.15 270.681 1295.42 271.621 1297.06 272.363C1298.71 273.055 1300.67 273.673 1302.97 274.217L1306.85 275.181C1309.89 275.824 1312.61 276.714 1315 277.852C1317.44 278.94 1319.39 280.448 1320.83 282.376C1322.28 284.255 1323 286.728 1323 289.794C1323 292.86 1322.23 295.53 1320.68 297.805C1319.14 300.08 1316.95 301.86 1314.1 303.146C1311.31 304.382 1308.02 305 1304.24 305Z" fill="white" fill-opacity="0.4"/>
</svg>
